<svg xmlns="http://www.w3.org/2000/svg" viewBox="0 0 512 512" role="img" aria-labelledby="title desc">
  <title id="title">Store Pilot</title>
  <desc id="desc">Forest green and copper Store Pilot app icon</desc>
  <defs>
    <linearGradient id="bg" x1="0" y1="0" x2="1" y2="1">
      <stop offset="0" stop-color="#05281d"/>
      <stop offset="0.55" stop-color="#073f2f"/>
      <stop offset="1" stop-color="#0f5a42"/>
    </linearGradient>
    <linearGradient id="copper" x1="0" y1="0" x2="0" y2="1">
      <stop offset="0" stop-color="#f0bf7e"/>
      <stop offset="0.35" stop-color="#d29352"/>
      <stop offset="1" stop-color="#a9602d"/>
    </linearGradient>
    <filter id="shadow" x="-20%" y="-20%" width="140%" height="140%">
      <feDropShadow dx="0" dy="16" stdDeviation="18" flood-color="#000000" flood-opacity="0.25"/>
    </filter>
  </defs>
  <rect width="512" height="512" rx="112" fill="#f5ead8"/>
  <rect x="48" y="48" width="416" height="416" rx="92" fill="url(#bg)" filter="url(#shadow)"/>
  <path d="M142 184h228c17 0 30 13 30 30v20c0 17-13 30-30 30H142c-17 0-30-13-30-30v-20c0-17 13-30 30-30Z" fill="url(#copper)"/>
  <path d="M156 296h200c15 0 28 13 28 28v12c0 15-13 28-28 28H156c-15 0-28-13-28-28v-12c0-15 13-28 28-28Z" fill="#fffaf1" opacity="0.88"/>
  <path d="M152 138h208" stroke="#fffaf1" stroke-width="28" stroke-linecap="round" opacity="0.92"/>
  <path d="M152 408h138" stroke="#f0bf7e" stroke-width="24" stroke-linecap="round" opacity="0.95"/>
  <text x="256" y="246" text-anchor="middle" font-family="Inter, Arial, sans-serif" font-size="46" font-weight="900" fill="#fffaf1">GO</text>
</svg>
