<svg xmlns="http://www.w3.org/2000/svg" viewBox="0 0 512 512" role="img" aria-labelledby="title desc">
  <title id="title">Store Pilot maskable icon</title>
  <desc id="desc">Full-bleed forest green Store Pilot icon with copper controls</desc>
  <defs>
    <linearGradient id="bg" x1="0" y1="0" x2="1" y2="1">
      <stop offset="0" stop-color="#05281d"/>
      <stop offset="0.55" stop-color="#073f2f"/>
      <stop offset="1" stop-color="#0f5a42"/>
    </linearGradient>
    <linearGradient id="copper" x1="0" y1="0" x2="0" y2="1">
      <stop offset="0" stop-color="#f0bf7e"/>
      <stop offset="0.35" stop-color="#d29352"/>
      <stop offset="1" stop-color="#a9602d"/>
    </linearGradient>
  </defs>
  <rect width="512" height="512" fill="url(#bg)"/>
  <circle cx="256" cy="256" r="188" fill="#073f2f" opacity="0.98"/>
  <path d="M154 190h204c15 0 27 12 27 27v18c0 15-12 27-27 27H154c-15 0-27-12-27-27v-18c0-15 12-27 27-27Z" fill="url(#copper)"/>
  <path d="M170 300h172c14 0 25 11 25 25v10c0 14-11 25-25 25H170c-14 0-25-11-25-25v-10c0-14 11-25 25-25Z" fill="#fffaf1" opacity="0.92"/>
  <path d="M164 150h184" stroke="#fffaf1" stroke-width="24" stroke-linecap="round" opacity="0.94"/>
  <path d="M166 396h118" stroke="#f0bf7e" stroke-width="22" stroke-linecap="round"/>
  <text x="256" y="246" text-anchor="middle" font-family="Inter, Arial, sans-serif" font-size="42" font-weight="900" fill="#fffaf1">GO</text>
</svg>
